<mxfile host="app.diagrams.net" agent="Mozilla/5.0 (Windows NT 10.0; Win64; x64; rv:133.0) Gecko/20100101 Firefox/133.0" version="26.0.4">
  <diagram name="Page-1" id="hvCVw3J_U8NuzNeVNspz">
    <mxGraphModel dx="2074" dy="1106" grid="1" gridSize="10" guides="1" tooltips="1" connect="1" arrows="1" fold="1" page="1" pageScale="1" pageWidth="850" pageHeight="1100" math="0" shadow="0">
      <root>
        <mxCell id="0" />
        <mxCell id="1" parent="0" />
        <mxCell id="oNIVlYiDy2HA4dlsOMTz-32" value="" style="group" vertex="1" connectable="0" parent="1">
          <mxGeometry x="330" y="340" width="245" height="63" as="geometry" />
        </mxCell>
        <mxCell id="oNIVlYiDy2HA4dlsOMTz-8" value="inference_pipeline.py" style="rounded=1;whiteSpace=wrap;html=1;fillColor=#dae8fc;strokeColor=#6c8ebf;fontStyle=1;strokeWidth=3;" vertex="1" parent="oNIVlYiDy2HA4dlsOMTz-32">
          <mxGeometry y="23" width="230" height="40" as="geometry" />
        </mxCell>
        <mxCell id="oNIVlYiDy2HA4dlsOMTz-28" value="" style="dashed=0;outlineConnect=0;html=1;align=center;labelPosition=center;verticalLabelPosition=bottom;verticalAlign=top;shape=mxgraph.weblogos.github" vertex="1" parent="oNIVlYiDy2HA4dlsOMTz-32">
          <mxGeometry x="210" width="35" height="35" as="geometry" />
        </mxCell>
        <mxCell id="oNIVlYiDy2HA4dlsOMTz-48" value="" style="group" vertex="1" connectable="0" parent="1">
          <mxGeometry x="40" y="188" width="190" height="370" as="geometry" />
        </mxCell>
        <mxCell id="oNIVlYiDy2HA4dlsOMTz-1" value="&lt;div&gt;Feature Store&lt;/div&gt;" style="shape=cylinder3;whiteSpace=wrap;html=1;boundedLbl=1;backgroundOutline=1;size=15;fontStyle=1;strokeColor=#00CC00;strokeWidth=2;labelPosition=center;verticalLabelPosition=top;align=center;verticalAlign=bottom;" vertex="1" parent="oNIVlYiDy2HA4dlsOMTz-48">
          <mxGeometry width="190" height="370" as="geometry" />
        </mxCell>
        <mxCell id="oNIVlYiDy2HA4dlsOMTz-65" value="" style="group" vertex="1" connectable="0" parent="oNIVlYiDy2HA4dlsOMTz-48">
          <mxGeometry x="10" y="112" width="170" height="170" as="geometry" />
        </mxCell>
        <mxCell id="oNIVlYiDy2HA4dlsOMTz-42" value="&lt;b&gt;delays_fg&lt;/b&gt;" style="ellipse;whiteSpace=wrap;html=1;fillColor=#d5e8d4;strokeColor=#82b366;" vertex="1" parent="oNIVlYiDy2HA4dlsOMTz-65">
          <mxGeometry width="70" height="70" as="geometry" />
        </mxCell>
        <mxCell id="oNIVlYiDy2HA4dlsOMTz-43" value="&lt;b&gt;weather_fg&lt;/b&gt;" style="ellipse;whiteSpace=wrap;html=1;fillColor=#d5e8d4;strokeColor=#82b366;" vertex="1" parent="oNIVlYiDy2HA4dlsOMTz-65">
          <mxGeometry x="100" width="70" height="70" as="geometry" />
        </mxCell>
        <mxCell id="oNIVlYiDy2HA4dlsOMTz-44" value="&lt;b&gt;delay_fv&lt;/b&gt;" style="ellipse;whiteSpace=wrap;html=1;fillColor=#dae8fc;strokeColor=#6c8ebf;" vertex="1" parent="oNIVlYiDy2HA4dlsOMTz-65">
          <mxGeometry x="50" y="100" width="70" height="70" as="geometry" />
        </mxCell>
        <mxCell id="oNIVlYiDy2HA4dlsOMTz-45" style="edgeStyle=orthogonalEdgeStyle;rounded=0;orthogonalLoop=1;jettySize=auto;html=1;exitX=0.5;exitY=1;exitDx=0;exitDy=0;entryX=0;entryY=0;entryDx=0;entryDy=0;" edge="1" parent="oNIVlYiDy2HA4dlsOMTz-65" source="oNIVlYiDy2HA4dlsOMTz-42" target="oNIVlYiDy2HA4dlsOMTz-44">
          <mxGeometry relative="1" as="geometry" />
        </mxCell>
        <mxCell id="oNIVlYiDy2HA4dlsOMTz-46" style="edgeStyle=orthogonalEdgeStyle;rounded=0;orthogonalLoop=1;jettySize=auto;html=1;entryX=1;entryY=0;entryDx=0;entryDy=0;" edge="1" parent="oNIVlYiDy2HA4dlsOMTz-65" source="oNIVlYiDy2HA4dlsOMTz-43" target="oNIVlYiDy2HA4dlsOMTz-44">
          <mxGeometry relative="1" as="geometry" />
        </mxCell>
        <mxCell id="oNIVlYiDy2HA4dlsOMTz-51" style="edgeStyle=orthogonalEdgeStyle;rounded=0;orthogonalLoop=1;jettySize=auto;html=1;entryX=1;entryY=0.5;entryDx=0;entryDy=0;" edge="1" parent="1" source="oNIVlYiDy2HA4dlsOMTz-50" target="oNIVlYiDy2HA4dlsOMTz-8">
          <mxGeometry relative="1" as="geometry" />
        </mxCell>
        <mxCell id="oNIVlYiDy2HA4dlsOMTz-63" style="edgeStyle=orthogonalEdgeStyle;rounded=0;orthogonalLoop=1;jettySize=auto;html=1;entryX=1;entryY=0.5;entryDx=0;entryDy=0;" edge="1" parent="1" source="oNIVlYiDy2HA4dlsOMTz-50" target="oNIVlYiDy2HA4dlsOMTz-59">
          <mxGeometry relative="1" as="geometry" />
        </mxCell>
        <mxCell id="oNIVlYiDy2HA4dlsOMTz-50" value="&lt;b&gt;Model Registry&lt;br&gt;&lt;/b&gt;" style="shape=cylinder3;whiteSpace=wrap;html=1;boundedLbl=1;backgroundOutline=1;size=15;strokeColor=#00CC00;strokeWidth=2;" vertex="1" parent="1">
          <mxGeometry x="690" y="338" width="112.5" height="90" as="geometry" />
        </mxCell>
        <mxCell id="oNIVlYiDy2HA4dlsOMTz-52" value="" style="group" vertex="1" connectable="0" parent="1">
          <mxGeometry x="330" y="220" width="245" height="63" as="geometry" />
        </mxCell>
        <mxCell id="oNIVlYiDy2HA4dlsOMTz-53" value="training_[keras/xgboost].py" style="rounded=1;whiteSpace=wrap;html=1;fillColor=#dae8fc;strokeColor=#6c8ebf;fontStyle=1;strokeWidth=3;" vertex="1" parent="oNIVlYiDy2HA4dlsOMTz-52">
          <mxGeometry y="23" width="230" height="40" as="geometry" />
        </mxCell>
        <mxCell id="oNIVlYiDy2HA4dlsOMTz-55" style="edgeStyle=orthogonalEdgeStyle;rounded=0;orthogonalLoop=1;jettySize=auto;html=1;entryX=0.5;entryY=0;entryDx=0;entryDy=0;entryPerimeter=0;" edge="1" parent="1" source="oNIVlYiDy2HA4dlsOMTz-53" target="oNIVlYiDy2HA4dlsOMTz-50">
          <mxGeometry relative="1" as="geometry" />
        </mxCell>
        <mxCell id="oNIVlYiDy2HA4dlsOMTz-57" value="&lt;div&gt;&lt;b&gt;&lt;font style=&quot;font-size: 13px;&quot;&gt;delay_fv&lt;/font&gt;&lt;/b&gt;&lt;/div&gt;" style="edgeStyle=orthogonalEdgeStyle;rounded=0;orthogonalLoop=1;jettySize=auto;html=1;exitX=1;exitY=0;exitDx=0;exitDy=75;exitPerimeter=0;entryX=0;entryY=0.5;entryDx=0;entryDy=0;labelBackgroundColor=#D4E1F5;" edge="1" parent="1" source="oNIVlYiDy2HA4dlsOMTz-1" target="oNIVlYiDy2HA4dlsOMTz-53">
          <mxGeometry relative="1" as="geometry" />
        </mxCell>
        <mxCell id="oNIVlYiDy2HA4dlsOMTz-58" value="&lt;b&gt;&lt;font style=&quot;font-size: 13px;&quot;&gt;delay_fv&lt;/font&gt;&lt;/b&gt;" style="edgeStyle=orthogonalEdgeStyle;rounded=0;orthogonalLoop=1;jettySize=auto;html=1;exitX=1;exitY=0;exitDx=0;exitDy=195;exitPerimeter=0;entryX=0;entryY=0.5;entryDx=0;entryDy=0;labelBackgroundColor=#D4E1F5;" edge="1" parent="1" source="oNIVlYiDy2HA4dlsOMTz-1" target="oNIVlYiDy2HA4dlsOMTz-8">
          <mxGeometry relative="1" as="geometry">
            <mxPoint x="240" y="273" as="sourcePoint" />
            <mxPoint x="340" y="273" as="targetPoint" />
          </mxGeometry>
        </mxCell>
        <mxCell id="oNIVlYiDy2HA4dlsOMTz-62" value="" style="group" vertex="1" connectable="0" parent="1">
          <mxGeometry x="356" y="465" width="180" height="69.3" as="geometry" />
        </mxCell>
        <mxCell id="oNIVlYiDy2HA4dlsOMTz-59" value="&lt;div&gt;&lt;b&gt;Streamlit UI&lt;/b&gt;&lt;/div&gt;&lt;br&gt;&lt;div&gt;Live inference &amp;amp; Hindcast&lt;br&gt;&lt;/div&gt;" style="rounded=1;whiteSpace=wrap;html=1;fillColor=#fff2cc;strokeColor=#d6b656;" vertex="1" parent="oNIVlYiDy2HA4dlsOMTz-62">
          <mxGeometry width="180" height="69.29999999999998" as="geometry" />
        </mxCell>
        <mxCell id="oNIVlYiDy2HA4dlsOMTz-61" value="" style="points=[];aspect=fixed;html=1;align=center;shadow=0;dashed=0;fillColor=#FF6A00;strokeColor=none;shape=mxgraph.alibaba_cloud.domain_and_website;" vertex="1" parent="oNIVlYiDy2HA4dlsOMTz-62">
          <mxGeometry x="141" y="5.025126475548073" width="30.94" height="24.966666666666665" as="geometry" />
        </mxCell>
        <mxCell id="oNIVlYiDy2HA4dlsOMTz-67" value="&lt;b&gt;&lt;font style=&quot;font-size: 13px;&quot;&gt;delay_fv&lt;/font&gt;&lt;/b&gt;" style="edgeStyle=orthogonalEdgeStyle;rounded=0;orthogonalLoop=1;jettySize=auto;html=1;exitX=0.989;exitY=0.841;exitDx=0;exitDy=0;exitPerimeter=0;entryX=0;entryY=0.5;entryDx=0;entryDy=0;labelBackgroundColor=#D4E1F5;" edge="1" parent="1" source="oNIVlYiDy2HA4dlsOMTz-1" target="oNIVlYiDy2HA4dlsOMTz-59">
          <mxGeometry relative="1" as="geometry">
            <mxPoint x="240" y="393" as="sourcePoint" />
            <mxPoint x="340" y="393" as="targetPoint" />
          </mxGeometry>
        </mxCell>
      </root>
    </mxGraphModel>
  </diagram>
</mxfile>
